<?xml version="1.0" encoding="utf-8"?>
<!-- Generator: Adobe Illustrator 25.2.0, SVG Export Plug-In . SVG Version: 6.00 Build 0)  -->
<svg version="1.1" id="Layer_1" xmlns="http://www.w3.org/2000/svg" xmlns:xlink="http://www.w3.org/1999/xlink" x="0px" y="0px"
	 viewBox="0 0 156.6 148" style="enable-background:new 0 0 156.6 148;" xml:space="preserve">
<style type="text/css">
	.st0{fill:#FEEB17;}
	.st1{fill:#F59C2C;}
	.st2{fill:#096FB7;}
	.st3{fill:#0BAAD6;}
	.st4{fill:#E20E17;}
	.st5{fill:#302D7D;}
	.st6{fill:#8D4090;}
	.st7{fill:#E8501D;}
	.st8{fill:#057B3A;}
	.st9{fill:#E40D7E;}
	.st10{fill:#66B330;}
	.st11{fill:#94C11F;}
	.st12{fill:#F8B133;}
</style>
<g>
	<g id="Layer_2_1_">
		<g id="logo_mark_KO">
			<g id="LOGO">
				<g id="insignia">
					<polygon class="st0" points="89.5,78.5 89.5,78.5 89.5,78.5 139.6,41.2 121.4,35.2 87.8,45.3 					"/>
					<polygon class="st1" points="156.6,79.9 156.6,79.8 156.5,79.9 					"/>
					<polygon class="st1" points="90.7,78.5 156.6,79.8 152.1,45.4 139.6,41.2 89.5,78.5 					"/>
					<polygon class="st2" points="8.8,38 25.2,65.1 45.7,41.2 34.7,12.8 					"/>
					<polygon class="st3" points="0,94.4 22.5,128.6 45.7,41.2 					"/>
					<polygon class="st4" points="66.7,95.5 87,148 126.9,131.7 126.2,109.7 89.5,78.5 					"/>
					<polygon class="st5" points="45.7,41.2 22.5,128.6 66.7,95.5 					"/>
					<polygon class="st6" points="22.5,128.6 62.2,116.5 87,148 66.7,95.5 					"/>
					<polygon class="st7" points="156.6,79.8 90.7,78.5 89.5,78.5 126.2,109.7 125.7,93.2 156.5,79.9 156.6,79.8 156.6,79.8 					
						"/>
					<polygon class="st8" points="45.7,41.2 87.8,45.3 65.5,19.7 34.7,12.8 45.7,41.2 45.7,41.2 					"/>
					<polygon class="st9" points="89.5,78.5 45.7,41.2 66.7,95.5 					"/>
					<polygon class="st10" points="87.8,45.3 85.4,0 65.5,19.7 87.8,45.3 					"/>
					<polygon class="st11" points="87.8,45.3 87.8,45.3 121.4,35.2 118.1,8.7 85.4,0 87.8,45.3 					"/>
					<polygon class="st12" points="87.8,45.3 87.8,45.3 87.8,45.3 87.8,45.3 45.7,41.2 45.7,41.2 89.5,78.5 89.5,78.5 					"/>
				</g>
			</g>
		</g>
	</g>
</g>
</svg>
